<mxfile host="app.diagrams.net" agent="Mozilla/5.0 (Windows NT 10.0; Win64; x64) AppleWebKit/537.36 (KHTML, like Gecko) Chrome/139.0.0.0 Safari/537.36" version="28.0.7">
  <diagram name="Page-1" id="gamRS6MLA4fs2B-uqD5Q">
    <mxGraphModel grid="1" page="1" gridSize="10" guides="1" tooltips="1" connect="1" arrows="1" fold="1" pageScale="1" pageWidth="850" pageHeight="1100" math="0" shadow="0">
      <root>
        <mxCell id="0" />
        <mxCell id="1" parent="0" />
        <mxCell id="4EWvyg0LMkku5Z849BaT-28" value="" style="rounded=0;whiteSpace=wrap;html=1;" vertex="1" parent="1">
          <mxGeometry x="230" y="450" width="290" height="470" as="geometry" />
        </mxCell>
        <mxCell id="qD9gXsYjsShy9WRek7qx-5" style="edgeStyle=orthogonalEdgeStyle;rounded=0;orthogonalLoop=1;jettySize=auto;html=1;exitX=0.5;exitY=1;exitDx=0;exitDy=0;entryX=0.5;entryY=0;entryDx=0;entryDy=0;" edge="1" parent="1" source="sVo8eWBov2D_V9g_eI1e-1" target="qD9gXsYjsShy9WRek7qx-1">
          <mxGeometry relative="1" as="geometry" />
        </mxCell>
        <mxCell id="sVo8eWBov2D_V9g_eI1e-1" value="Inicio" style="rounded=1;whiteSpace=wrap;html=1;" vertex="1" parent="1">
          <mxGeometry x="321" y="70" width="80" height="30" as="geometry" />
        </mxCell>
        <mxCell id="sVo8eWBov2D_V9g_eI1e-14" value="&lt;font style=&quot;font-size: 20px;&quot;&gt;&lt;b&gt;Dibujar escalerea invertida&lt;/b&gt;&lt;/font&gt;" style="text;html=1;align=center;verticalAlign=middle;whiteSpace=wrap;rounded=0;" vertex="1" parent="1">
          <mxGeometry x="40" y="20" width="660" height="30" as="geometry" />
        </mxCell>
        <mxCell id="I5g4T-FfKX0s-sWPSXJS-8" style="edgeStyle=orthogonalEdgeStyle;rounded=0;orthogonalLoop=1;jettySize=auto;html=1;exitX=0.5;exitY=1;exitDx=0;exitDy=0;entryX=0.5;entryY=0;entryDx=0;entryDy=0;" edge="1" parent="1" source="qD9gXsYjsShy9WRek7qx-1" target="I5g4T-FfKX0s-sWPSXJS-1">
          <mxGeometry relative="1" as="geometry" />
        </mxCell>
        <mxCell id="qD9gXsYjsShy9WRek7qx-1" value="Leer altura" style="rounded=0;whiteSpace=wrap;html=1;" vertex="1" parent="1">
          <mxGeometry x="321" y="150" width="80" height="40" as="geometry" />
        </mxCell>
        <mxCell id="fhB60b2QltupWCeUgBXA-5" value="Fin" style="rounded=1;whiteSpace=wrap;html=1;" vertex="1" parent="1">
          <mxGeometry x="570" y="476" width="80" height="30" as="geometry" />
        </mxCell>
        <mxCell id="NB0EWyJ2rPr5r4y2Koyj-11" style="edgeStyle=orthogonalEdgeStyle;rounded=0;orthogonalLoop=1;jettySize=auto;html=1;exitX=0.5;exitY=1;exitDx=0;exitDy=0;entryX=0.5;entryY=0;entryDx=0;entryDy=0;" edge="1" parent="1" source="I5g4T-FfKX0s-sWPSXJS-1" target="3A96XzFDcWaCMQ-mL7pO-4">
          <mxGeometry relative="1" as="geometry">
            <mxPoint x="360" y="300" as="targetPoint" />
          </mxGeometry>
        </mxCell>
        <mxCell id="I5g4T-FfKX0s-sWPSXJS-1" value="linea = 1" style="rounded=0;whiteSpace=wrap;html=1;" vertex="1" parent="1">
          <mxGeometry x="301" y="228" width="120" height="40" as="geometry" />
        </mxCell>
        <mxCell id="4EWvyg0LMkku5Z849BaT-5" style="edgeStyle=orthogonalEdgeStyle;rounded=0;orthogonalLoop=1;jettySize=auto;html=1;exitX=1;exitY=0.5;exitDx=0;exitDy=0;entryX=0.5;entryY=0;entryDx=0;entryDy=0;" edge="1" parent="1" source="3A96XzFDcWaCMQ-mL7pO-4" target="fhB60b2QltupWCeUgBXA-5">
          <mxGeometry relative="1" as="geometry" />
        </mxCell>
        <mxCell id="4EWvyg0LMkku5Z849BaT-8" style="edgeStyle=orthogonalEdgeStyle;rounded=0;orthogonalLoop=1;jettySize=auto;html=1;exitX=0.5;exitY=1;exitDx=0;exitDy=0;entryX=0.5;entryY=0;entryDx=0;entryDy=0;" edge="1" parent="1" source="3A96XzFDcWaCMQ-mL7pO-4" target="4EWvyg0LMkku5Z849BaT-7">
          <mxGeometry relative="1" as="geometry" />
        </mxCell>
        <mxCell id="3A96XzFDcWaCMQ-mL7pO-4" value="¿linea &amp;gt; altura?&amp;nbsp;" style="rhombus;whiteSpace=wrap;html=1;" vertex="1" parent="1">
          <mxGeometry x="301" y="346" width="120" height="80" as="geometry" />
        </mxCell>
        <mxCell id="NB0EWyJ2rPr5r4y2Koyj-16" value="Si" style="text;html=1;align=center;verticalAlign=middle;resizable=0;points=[];autosize=1;strokeColor=none;fillColor=none;" vertex="1" parent="1">
          <mxGeometry x="420" y="346" width="30" height="30" as="geometry" />
        </mxCell>
        <mxCell id="4EWvyg0LMkku5Z849BaT-6" value="No" style="text;html=1;align=center;verticalAlign=middle;resizable=0;points=[];autosize=1;strokeColor=none;fillColor=none;" vertex="1" parent="1">
          <mxGeometry x="320" y="416" width="40" height="30" as="geometry" />
        </mxCell>
        <mxCell id="4EWvyg0LMkku5Z849BaT-22" style="edgeStyle=orthogonalEdgeStyle;rounded=0;orthogonalLoop=1;jettySize=auto;html=1;exitX=0.5;exitY=1;exitDx=0;exitDy=0;entryX=0.5;entryY=0;entryDx=0;entryDy=0;" edge="1" parent="1" source="4EWvyg0LMkku5Z849BaT-7" target="4EWvyg0LMkku5Z849BaT-10">
          <mxGeometry relative="1" as="geometry" />
        </mxCell>
        <mxCell id="4EWvyg0LMkku5Z849BaT-7" value="asteriscos_linea = altura+1-linea" style="rounded=0;whiteSpace=wrap;html=1;" vertex="1" parent="1">
          <mxGeometry x="266" y="486" width="190" height="40" as="geometry" />
        </mxCell>
        <mxCell id="4EWvyg0LMkku5Z849BaT-14" style="edgeStyle=orthogonalEdgeStyle;rounded=0;orthogonalLoop=1;jettySize=auto;html=1;exitX=0.5;exitY=1;exitDx=0;exitDy=0;entryX=0.5;entryY=0;entryDx=0;entryDy=0;" edge="1" parent="1" source="4EWvyg0LMkku5Z849BaT-9" target="4EWvyg0LMkku5Z849BaT-11">
          <mxGeometry relative="1" as="geometry" />
        </mxCell>
        <mxCell id="4EWvyg0LMkku5Z849BaT-20" style="edgeStyle=orthogonalEdgeStyle;rounded=0;orthogonalLoop=1;jettySize=auto;html=1;exitX=0;exitY=0.5;exitDx=0;exitDy=0;entryX=0.5;entryY=1;entryDx=0;entryDy=0;" edge="1" parent="1" source="4EWvyg0LMkku5Z849BaT-9" target="4EWvyg0LMkku5Z849BaT-19">
          <mxGeometry relative="1" as="geometry" />
        </mxCell>
        <mxCell id="4EWvyg0LMkku5Z849BaT-9" value="¿asteriscos=0?&amp;nbsp;" style="rhombus;whiteSpace=wrap;html=1;" vertex="1" parent="1">
          <mxGeometry x="300" y="636" width="120" height="80" as="geometry" />
        </mxCell>
        <mxCell id="4EWvyg0LMkku5Z849BaT-16" style="edgeStyle=orthogonalEdgeStyle;rounded=0;orthogonalLoop=1;jettySize=auto;html=1;exitX=0.5;exitY=1;exitDx=0;exitDy=0;entryX=0.5;entryY=0;entryDx=0;entryDy=0;" edge="1" parent="1" source="4EWvyg0LMkku5Z849BaT-10" target="4EWvyg0LMkku5Z849BaT-9">
          <mxGeometry relative="1" as="geometry" />
        </mxCell>
        <mxCell id="4EWvyg0LMkku5Z849BaT-10" value="asteriscos = asteriscos_linea" style="rounded=0;whiteSpace=wrap;html=1;" vertex="1" parent="1">
          <mxGeometry x="266" y="566" width="190" height="40" as="geometry" />
        </mxCell>
        <mxCell id="4EWvyg0LMkku5Z849BaT-15" style="edgeStyle=orthogonalEdgeStyle;rounded=0;orthogonalLoop=1;jettySize=auto;html=1;exitX=0.5;exitY=1;exitDx=0;exitDy=0;entryX=0.5;entryY=0;entryDx=0;entryDy=0;" edge="1" parent="1" source="4EWvyg0LMkku5Z849BaT-11" target="4EWvyg0LMkku5Z849BaT-12">
          <mxGeometry relative="1" as="geometry" />
        </mxCell>
        <mxCell id="4EWvyg0LMkku5Z849BaT-11" value="dibujar asterisco" style="rounded=0;whiteSpace=wrap;html=1;" vertex="1" parent="1">
          <mxGeometry x="295" y="766" width="130" height="40" as="geometry" />
        </mxCell>
        <mxCell id="4EWvyg0LMkku5Z849BaT-17" style="edgeStyle=orthogonalEdgeStyle;rounded=0;orthogonalLoop=1;jettySize=auto;html=1;exitX=0.5;exitY=1;exitDx=0;exitDy=0;" edge="1" parent="1" source="4EWvyg0LMkku5Z849BaT-12">
          <mxGeometry relative="1" as="geometry">
            <mxPoint x="360" y="616" as="targetPoint" />
            <Array as="points">
              <mxPoint x="360" y="896" />
              <mxPoint x="490" y="896" />
              <mxPoint x="490" y="616" />
            </Array>
          </mxGeometry>
        </mxCell>
        <mxCell id="4EWvyg0LMkku5Z849BaT-12" value="decrementar asteriscos en 1" style="rounded=0;whiteSpace=wrap;html=1;" vertex="1" parent="1">
          <mxGeometry x="250" y="832" width="220" height="40" as="geometry" />
        </mxCell>
        <mxCell id="4EWvyg0LMkku5Z849BaT-18" value="No" style="text;html=1;align=center;verticalAlign=middle;resizable=0;points=[];autosize=1;strokeColor=none;fillColor=none;" vertex="1" parent="1">
          <mxGeometry x="360" y="716" width="40" height="30" as="geometry" />
        </mxCell>
        <mxCell id="4EWvyg0LMkku5Z849BaT-26" value="" style="edgeStyle=orthogonalEdgeStyle;rounded=0;orthogonalLoop=1;jettySize=auto;html=1;" edge="1" parent="1" source="4EWvyg0LMkku5Z849BaT-19" target="4EWvyg0LMkku5Z849BaT-23">
          <mxGeometry relative="1" as="geometry" />
        </mxCell>
        <mxCell id="4EWvyg0LMkku5Z849BaT-19" value="Pasar a siguiente linea" style="rounded=0;whiteSpace=wrap;html=1;" vertex="1" parent="1">
          <mxGeometry x="68" y="526" width="150" height="40" as="geometry" />
        </mxCell>
        <mxCell id="4EWvyg0LMkku5Z849BaT-21" value="Si" style="text;html=1;align=center;verticalAlign=middle;resizable=0;points=[];autosize=1;strokeColor=none;fillColor=none;" vertex="1" parent="1">
          <mxGeometry x="265" y="644" width="30" height="30" as="geometry" />
        </mxCell>
        <mxCell id="4EWvyg0LMkku5Z849BaT-25" style="edgeStyle=orthogonalEdgeStyle;rounded=0;orthogonalLoop=1;jettySize=auto;html=1;exitX=0.5;exitY=0;exitDx=0;exitDy=0;" edge="1" parent="1" source="4EWvyg0LMkku5Z849BaT-23">
          <mxGeometry relative="1" as="geometry">
            <mxPoint x="360" y="300" as="targetPoint" />
            <Array as="points">
              <mxPoint x="143" y="300" />
            </Array>
          </mxGeometry>
        </mxCell>
        <mxCell id="4EWvyg0LMkku5Z849BaT-23" value="incrementar linea en 1" style="rounded=0;whiteSpace=wrap;html=1;" vertex="1" parent="1">
          <mxGeometry x="68" y="436" width="150" height="40" as="geometry" />
        </mxCell>
        <mxCell id="4EWvyg0LMkku5Z849BaT-29" value="Dibujar linea" style="text;html=1;align=center;verticalAlign=middle;resizable=0;points=[];autosize=1;strokeColor=none;fillColor=none;" vertex="1" parent="1">
          <mxGeometry x="430" y="447" width="90" height="30" as="geometry" />
        </mxCell>
      </root>
    </mxGraphModel>
  </diagram>
</mxfile>
